<?xml version="1.0" encoding="UTF-8" standalone="no"?>
<!DOCTYPE svg PUBLIC "-//W3C//DTD SVG 1.1//EN" "http://www.w3.org/Graphics/SVG/1.1/DTD/svg11.dtd">
<svg xmlns="http://www.w3.org/2000/svg" xmlns:xlink="http://www.w3.org/1999/xlink" version="1.1" width="481.89pt" height="187.89pt" viewBox="0 0 481.89 187.89">
<g enable-background="new">
<clipPath id="cp0">
<path transform="matrix(1,0,0,-1,0,187.89)" d="M 0 0 L 0 187.88768 L 481.89595 187.88768 L 481.89595 0 Z M 481.89595 187.88768 "/>
</clipPath>
<g clip-path="url(#cp0)">
<clipPath id="cp1">
<path transform="matrix(1,0,0,-1,0,187.89)" d="M .99628 5.97766 L .99628 181.91002 C .99628 184.6612 3.22647 186.8914 5.97766 186.8914 L 475.9183 186.8914 C 478.6695 186.8914 480.89967 184.6612 480.89967 181.91002 L 480.89967 5.97766 C 480.89967 3.22647 478.6695 .99628 475.9183 .99628 L 5.97766 .99628 C 3.22647 .99628 .99628 3.22647 .99628 5.97766 Z "/>
</clipPath>
<g clip-path="url(#cp1)">
<path transform="matrix(1,0,0,-1,0,187.89)" d="M .99628 5.97766 L .99628 181.91002 C .99628 184.6612 3.22647 186.8914 5.97766 186.8914 L 475.9183 186.8914 C 478.6695 186.8914 480.89967 184.6612 480.89967 181.91002 L 480.89967 5.97766 C 480.89967 3.22647 478.6695 .99628 475.9183 .99628 L 5.97766 .99628 C 3.22647 .99628 .99628 3.22647 .99628 5.97766 Z " fill="#f5f5f5"/>
</g>
<path transform="matrix(1,0,0,-1,0,187.89)" stroke-width="1.99255" stroke-linecap="butt" stroke-miterlimit="10" stroke-linejoin="miter" fill="none" stroke="#5f5f5f" d="M .99628 5.97766 L .99628 181.91002 C .99628 184.6612 3.22647 186.8914 5.97766 186.8914 L 475.9183 186.8914 C 478.6695 186.8914 480.89967 184.6612 480.89967 181.91002 L 480.89967 5.97766 C 480.89967 3.22647 478.6695 .99628 475.9183 .99628 L 5.97766 .99628 C 3.22647 .99628 .99628 3.22647 .99628 5.97766 Z "/>
<path transform="matrix(1,0,0,-1,0,187.89)" d="M 1.99255 166.97585 L 1.99255 181.91002 C 1.99255 184.11096 3.77672 185.89513 5.97766 185.89513 L 475.9183 185.89513 C 478.11924 185.89513 479.9034 184.11096 479.9034 181.91002 L 479.9034 166.97585 " fill="#5f5f5f"/>
</g>
<text fill="#ffffff" xml:space="preserve" transform="matrix(1 0 -0 1 83.955 65.229999)" font-size="9.9626" font-family="LMRoman10" font-weight="bold"><tspan y="-51.298" x="-72 -63.3425 -60.16443 -54.435934 -48.707437 -43.98516 -40.80709 -36.35381 -26.809639 -21.081145 -12.921774 -4.314088 -.4984119 6.395707 11.645998 17.215092 21.937365 28.303467 31.481537 37.847639">Algoritmo.Q-Learning</tspan></text>
<text xml:space="preserve" transform="matrix(1 0 -0 1 83.955 65.229999)" font-size="9.9626" font-family="LMRoman10" font-weight="bold"><tspan y="-25.186" x="-72 -64.47823 -58.90914 -54.186868 -48.617776 -39.073606 -33.823316 -29.370034 -24.64776 -18.919266">Par&#x00e2;metros</tspan></text>
<text xml:space="preserve" transform="matrix(1 0 -0 1 83.955 65.229999)" font-size="9.9626" font-family="LMRoman10"><tspan y="-25.186" x="-14.405998">:</tspan></text>
<text xml:space="preserve" transform="matrix(1 0 -0 1 83.955 65.229999)" font-size="9.9626" font-family="LatinModernMath"><tspan y="-25.186" x="-8.318998 -.9167862 9.60372 14.58502 19.018378 28.164046 37.56874 40.39812 45.37942 49.81278 54.79408 57.563684 61.99704 70.45529 79.85999 82.68937 87.67067 92.10403 97.08533">&#x1d700;&#x003e;0,&#x1d6fc;&#x2208;[0,1],&#x1d6fe;&#x2208;[0,1]</tspan></text>
<text xml:space="preserve" transform="matrix(1 0 -0 1 83.955 65.229999)" font-size="9.9626" font-family="LMRoman10" font-weight="bold"><tspan y="-13.231001" x="-72 -67.6563 -61.290205 -58.112134 -53.021245 -49.843175 -44.274084 -41.096014 -37.917943 -32.827054 -27.25796">Inicializar</tspan></text>
<text xml:space="preserve" transform="matrix(1 0 -0 1 83.955 65.229999)" font-size="9.9626" font-family="LMRoman10"><tspan y="-13.231001" x="-22.535">:</tspan><tspan y="-1.2750006" x="-54.067 -46.316099 -42.440649 -38.51538 -32.438196 -27.456894 -20.263897 -15.282597 -11.377257 -5.8380515 -3.0684484 .80700328 4.7123425 9.693642 13.598981 16.368584 24.66743 30.206637 35.187936 39.093275 47.39212 51.26757 56.527826 62.06703 70.365879 77.60868 85.34962 90.33092 96.41806 100.84145 106.10171 110.5251 114.948497 118.823947 127.12279 132.66199 137.64328 141.54862 149.84746 160.91591 164.79137 168.66683 173.09023 176.99556 185.2944 188.06401 193.60321 198.5845 201.35411">Q(s,a)arbitr&#x00e1;rioparatodosea,excetoparaQ(terminal,</tspan></text>
<text xml:space="preserve" transform="matrix(1 0 -0 1 83.955 65.229999)" font-size="9.9626" font-family="LatinModernMath"><tspan y="-1.2750006" x="207.45201">&#x22c5;</tspan></text>
<text xml:space="preserve" transform="matrix(1 0 -0 1 83.955 65.229999)" font-size="9.9626" font-family="LMRoman10"><tspan y="-1.2750006" x="210.22202 217.40506 228.47351">)=0</tspan></text>
<text xml:space="preserve" transform="matrix(1 0 -0 1 83.955 65.229999)" font-size="9.9626" font-family="LMRoman10" font-weight="bold"><tspan y="22.634999" x="-71.99997 -65.10585 -59.05855 -53.330057">Loop</tspan></text>
<text xml:space="preserve" transform="matrix(1 0 -0 1 83.955 65.229999)" font-size="9.9626" font-family="LMRoman10"><tspan y="22.634999" x="-43.64597 -38.106763 -33.12546 -29.220124 -20.93124 -16.507845 -11.526545 -5.9873387 2.3115073 6.734902 12.274108 15.043711 18.968976 24.229229 29.768435 32.538038 37.519338">paracadaepis&#x00f3;dio:</tspan></text>
<text xml:space="preserve" transform="matrix(1 0 -0 1 83.955 65.229999)" font-size="9.9626" font-family="LMRoman10" font-weight="bold"><tspan y="34.589998" x="-54.06697 -49.723279 -43.357179 -40.179109 -35.08822 -31.910149 -26.341055 -23.162985 -19.984915 -14.894026 -9.324932">Inicializar</tspan></text>
<text xml:space="preserve" transform="matrix(1 0 -0 1 83.955 65.229999)" font-size="9.9626" font-family="LMRoman10"><tspan y="34.589998" x="-1.2849693">S</tspan></text>
<text xml:space="preserve" transform="matrix(1 0 -0 1 83.955 65.229999)" font-size="9.9626" font-family="LMRoman10" font-weight="bold"><tspan y="46.545" x="-54.06697 -47.17285 -41.135515 -35.407018">Loop</tspan></text>
<text xml:space="preserve" transform="matrix(1 0 -0 1 83.955 65.229999)" font-size="9.9626" font-family="LMRoman10"><tspan y="46.545" x="-25.71397 -20.174765 -15.193464 -11.288125 -2.9892793 1.4341154 6.4154155 11.954621 20.253468 25.792674 30.773974 34.699239 38.624505 46.92335 52.46256 60.761407 65.1848 70.72401 73.49361 77.41887 82.67912 88.21833 90.98793 95.96923">paracadapassodoepis&#x00f3;dio:</tspan><tspan y="58.5" x="-36.13497 -29.350441 -25.425177 -21.001782 -16.020482 -13.250878 -7.7116725 -3.2882777 3.9346076 14.724104 20.26331 28.00425 36.861005 42.40021 46.325479 51.306779 56.845987 62.385194 70.68404 76.5022 81.4835 84.2531 87.0227 90.89815 93.66775 98.09114 106.389987 111.92919 116.352588 120.25793 123.02753 127.73984 132.72113 138.26033 146.54921 152.08841 159.82936 170.89781 174.77327 179.19667 184.17797 192.4768">EscolherAdeSusandopol&#x00ed;ticaderivadadeQ(como</tspan></text>
<text xml:space="preserve" transform="matrix(1 0 -0 1 83.955 65.229999)" font-size="9.9626" font-family="LatinModernMath"><tspan y="58.5" x="200.77704">&#x1d700;</tspan></text>
<text xml:space="preserve" transform="matrix(1 0 -0 1 83.955 65.229999)" font-size="9.9626" font-family="LMRoman10"><tspan y="58.5" x="205.41904 208.73659 213.71788 219.25708 222.02669 227.00798 230.93325 235.91454">-guloso)</tspan><tspan y="70.456" x="-36.134965 -29.7589 -24.7776 -16.478753 -11.497452 -4.2845299 .6967702 5.120165 10.101465 18.40031 25.872262 31.959412 35.86475 40.288145 44.711538 49.13493 54.95309 59.376485 66.599369 73.93184 80.01898 85.55819">Tomara&#x00e7;&#x00e3;oA,receberR,S&#x2019;</tspan></text>
<text xml:space="preserve" transform="matrix(1 0 -0 1 83.955 65.229999)" font-size="9.9626" font-family="LatinModernMath"><tspan y="82.411" x="-36.134965 -28.254548 -24.379096 -17.674267 -13.250873 -5.778922 .8661325 13.598335 21.478753 25.354205 32.059034 36.49239 43.96434 50.051488 60.014089 66.39015 69.21953 79.23194 89.19454">&#x1d444;(&#x1d446;,&#x1d434;)&#x2190;&#x1d444;(&#x1d446;,&#x1d434;)+&#x1d6fc;[&#x1d445;+&#x1d6fe;</tspan></text>
<text xml:space="preserve" transform="matrix(1 0 -0 1 83.955 65.229999)" font-size="9.9626" font-family="LMRoman10"><tspan y="82.411" x="96.55403 104.852878 109.834178">max</tspan></text>
<text xml:space="preserve" transform="matrix(1 0 -0 1 83.955 65.229999)" font-size="6.9738" font-family="LatinModernMath"><tspan y="84.872" x="115.09403">&#x1d44e;</tspan></text>
<text xml:space="preserve" transform="matrix(1 0 -0 1 83.955 65.229999)" font-size="9.9626" font-family="LatinModernMath"><tspan y="82.411" x="121.577037 129.45745 133.3329">&#x1d444;(&#x1d446;</tspan></text>
<text xml:space="preserve" transform="matrix(1 0 -0 1 83.955 65.229999)" font-size="6.9738" font-family="LatinModernMath"><tspan y="78.79401" x="140.03804">&#x2032;</tspan></text>
<text xml:space="preserve" transform="matrix(1 0 -0 1 83.955 65.229999)" font-size="9.9626" font-family="LatinModernMath"><tspan y="82.411" x="143.37404 147.79744 153.06766 159.15482 169.12738 177.0078 180.88326 187.58809 192.01149 199.48345 203.3589">,&#x1d44e;)&#x2212;&#x1d444;(&#x1d446;,&#x1d434;)]</tspan><tspan y="94.366008" x="-36.134965 -26.670495 -13.938291">&#x1d446;&#x2190;&#x1d446;</tspan></text>
<text xml:space="preserve" transform="matrix(1 0 -0 1 83.955 65.229999)" font-size="6.9738" font-family="LatinModernMath"><tspan y="90.74901" x="-7.226963">&#x2032;</tspan></text>
<text xml:space="preserve" transform="matrix(1 0 -0 1 83.955 65.229999)" font-size="9.9626" font-family="LMRoman10"><tspan y="106.32101" x="-54.066965 -46.873968 -42.998517 -35.26754 -26.41079 -22.485526 -18.06213 -10.839245 -6.9637935 -2.5403987 1.3649407 9.663787 12.43339 17.972596 22.953896">At&#x00e9;Sserterminal</tspan></text>
</g>
</svg>
